<svg width="512" height="512" viewBox="0 0 512 512" fill="none" xmlns="http://www.w3.org/2000/svg" xmlns:xlink="http://www.w3.org/1999/xlink" class=""><rect id="_r_9_" width="512" height="512" x="0" y="0" rx="128" fill="url(#_r_a_)" stroke="#FFFFFF" stroke-width="0" stroke-opacity="100%" paint-order="stroke"></rect><clipPath id="clip"><use xlink:href="#_r_9_"></use></clipPath><defs><radialGradient id="_r_a_" cx="50%" cy="50%" r="100%" fx="50%" fy="0%" gradientUnits="objectBoundingBox"><stop stop-color="#404040"></stop><stop offset="1" stop-color="#0a0a0a"></stop></radialGradient><radialGradient id="_r_b_" cx="0" cy="0" r="1" gradientUnits="userSpaceOnUse" gradientTransform="translate(256) rotate(90) scale(512)"><stop stop-color="white"></stop><stop offset="1" stop-color="white" stop-opacity="0"></stop></radialGradient></defs><svg xmlns="http://www.w3.org/2000/svg" fill="none" viewBox="0 0 16 16" width="352" height="352" x="80" y="80" style="color: rgb(250, 250, 250);" alignment-baseline="middle"><path stroke="currentColor" stroke-linecap="round" stroke-linejoin="round" stroke-width="1.5" d="M5.25 12.5a1.75 1.75 0 1 1-3.5 0 1.75 1.75 0 0 1 3.5 0Zm0 0V4.78a1 1 0 0 1 .757-.97l7-1.75a1 1 0 0 1 1.243.97v7.47m0 0a1.75 1.75 0 1 1-3.5 0 1.75 1.75 0 0 1 3.5 0Z"></path></svg></svg>